<!-- Generator: Adobe Illustrator 19.2.1, SVG Export Plug-In  -->
<svg version="1.1"
     xmlns="http://www.w3.org/2000/svg" xmlns:xlink="http://www.w3.org/1999/xlink"
     xmlns:a="http://ns.adobe.com/AdobeSVGViewerExtensions/3.0/"
     x="0px" y="0px" width="20.4px" height="20.4px" viewBox="0 0 20.4 20.4" enable-background="new 0 0 20.4 20.4"
     xml:space="preserve">
<defs>
</defs>
    <path fill="none" stroke="#FFFFFF" stroke-miterlimit="10" d="M2.7,2.7c2.9-2.9,7.6-2.9,10.5,0s2.9,7.6,0,10.5s-7.6,2.9-10.5,0
	S-0.2,5.6,2.7,2.7"/>
    <line fill="none" stroke="#FFFFFF" stroke-miterlimit="10" x1="20.1" y1="20.1" x2="13.2" y2="13.2"/>
</svg>


        <!-- Generator: Adobe Illustrator 19.2.1, SVG Export Plug-In  -->
<svg version="1.1"
     xmlns="http://www.w3.org/2000/svg" xmlns:xlink="http://www.w3.org/1999/xlink"
     xmlns:a="http://ns.adobe.com/AdobeSVGViewerExtensions/3.0/"
     x="0px" y="0px" width="14.1px" height="14.1px" viewBox="0 0 14.1 14.1" enable-background="new 0 0 14.1 14.1"
     xml:space="preserve">
<defs>
</defs>
<polyline fill="none" stroke="#FFFFFF" stroke-miterlimit="10" points="13.4,0.4 10,3.7 6.9,6.9 4.2,9.5 0.4,13.4 "/>
<line fill="none" stroke="#FFFFFF" stroke-miterlimit="10" x1="13.7" y1="13.7" x2="6.9" y2="6.9"/>
</svg>


        <!-- Generator: Adobe Illustrator 19.2.1, SVG Export Plug-In  -->
<svg version="1.1"
     xmlns="http://www.w3.org/2000/svg" xmlns:xlink="http://www.w3.org/1999/xlink"
     xmlns:a="http://ns.adobe.com/AdobeSVGViewerExtensions/3.0/"
     x="0px" y="0px" width="14.1px" height="14.1px" viewBox="0 0 14.1 14.1" enable-background="new 0 0 14.1 14.1"
     xml:space="preserve">
<defs>
</defs>
<polyline fill="none" stroke="#FFFFFF" stroke-miterlimit="10" points="13.4,0.4 10,3.7 6.9,6.9 4.2,9.5 0.4,13.4 "/>
<line fill="none" stroke="#FFFFFF" stroke-miterlimit="10" x1="13.7" y1="13.7" x2="0.4" y2="0.4"/>
</svg>
