<svg xmlns="http://www.w3.org/2000/svg" viewBox="0 0 59.2 25.2" enable-background="new 0 0 59.2 25.2">
    <g>
        <path class="letter" fill="#242432" d="M45.4,21.3c-0.8,0.3-1.4-0.3-1.4-1V0h-3.8v21c0,3.2,2.6,4.7,5.5,3.9c0.3-0.1,0.6-0.2,0.9-0.3V21
		C46.1,21.1,45.7,21.2,45.4,21.3z"/>
        <path class="letter" fill="#242432" d="M31,21.2c-4.1,1.3-7.4-1.5-7.4-5.6v-0.9c0-3.3,2.2-5.3,4.8-5.3c2.1,0,3.9,1.1,4.4,3.1l-4.5,1.6v3.5l8.5-2.6
		c0-5.8-3.7-9.3-8.3-9.3c-4.7,0-8.6,4-8.6,8.3v1.8c0,5.1,3.8,9.3,8.9,9.3c1.7,0,3.5-0.4,5.1-1.1v-3.8C32.9,20.6,31.7,21,31,21.2z"/>

        <path class="letter" fill="#242432" d="M9,5.8c-2.1,0-3.9,1-5.3,2.5l-0.6-2H0v18.8h3.8v-9.3c0-4.3,2-6.2,4.6-6.2c2,0,4,1.3,4,4.2v11.4h3.8V12.6
		C16.2,8.8,13.2,5.8,9,5.8z"/>
        <circle class="circle" fill="#af00ff" cx="55.6" cy="9.4" r="3.6"/>
    </g>
</svg>