<!-- Generator: Adobe Illustrator 21.1.0, SVG Export Plug-In  -->
<svg version="1.1"
	 xmlns="http://www.w3.org/2000/svg" xmlns:xlink="http://www.w3.org/1999/xlink" xmlns:a="http://ns.adobe.com/AdobeSVGViewerExtensions/3.0/"
	 x="0px" y="0px" width="22px" height="16px" viewBox="0 0 22 16" style="enable-background:new 0 0 22 16;" xml:space="preserve">
<style type="text/css">
	.st0{fill:#B22234;}
	.st1{fill:#FFFFFF;}
	.st2{fill:#3C3B6E;}
</style>
<defs>
</defs>
<rect class="st0" width="22" height="16"/>
<g>
	<rect y="1.2" class="st1" width="22" height="1.2"/>
	<rect y="3.7" class="st1" width="22" height="1.2"/>
	<rect y="6.2" class="st1" width="22" height="1.2"/>
	<rect y="8.6" class="st1" width="22" height="1.2"/>
	<rect y="11.1" class="st1" width="22" height="1.2"/>
	<rect y="13.6" class="st1" width="22" height="1.2"/>
</g>
<rect class="st2" width="10" height="8.6"/>
<g>
	<polygon class="st1" points="1,0.4 0.9,0.7 0.5,0.7 0.8,0.9 0.7,1.3 1,1 1.3,1.3 1.2,0.9 1.5,0.7 1.1,0.7 	"/>
	<polygon class="st1" points="1,2.1 0.9,2.4 0.5,2.4 0.8,2.6 0.7,3 1,2.8 1.3,3 1.2,2.6 1.5,2.4 1.1,2.4 	"/>
	<polygon class="st1" points="1,3.8 0.9,4.2 0.5,4.2 0.8,4.4 0.7,4.7 1,4.5 1.3,4.7 1.2,4.4 1.5,4.2 1.1,4.2 	"/>
	<polygon class="st1" points="1,5.5 0.9,5.9 0.5,5.9 0.8,6.1 0.7,6.4 1,6.2 1.3,6.4 1.2,6.1 1.5,5.9 1.1,5.9 	"/>
	<polygon class="st1" points="1.1,7.6 1,7.3 0.9,7.6 0.5,7.6 0.8,7.8 0.7,8.2 1,7.9 1.3,8.2 1.2,7.8 1.5,7.6 	"/>
	<polygon class="st1" points="2,1.2 1.9,1.6 1.6,1.6 1.8,1.8 1.7,2.1 2,1.9 2.3,2.1 2.2,1.8 2.5,1.6 2.1,1.6 	"/>
	<polygon class="st1" points="2,3 1.9,3.3 1.6,3.3 1.8,3.5 1.7,3.8 2,3.6 2.3,3.8 2.2,3.5 2.5,3.3 2.1,3.3 	"/>
	<polygon class="st1" points="2,4.7 1.9,5 1.6,5 1.8,5.2 1.7,5.6 2,5.4 2.3,5.6 2.2,5.2 2.5,5 2.1,5 	"/>
	<polygon class="st1" points="2.1,6.7 2,6.4 1.9,6.7 1.6,6.7 1.8,7 1.7,7.3 2,7.1 2.3,7.3 2.2,7 2.5,6.7 	"/>
	<polygon class="st1" points="3,0.4 2.9,0.7 2.6,0.7 2.9,0.9 2.8,1.3 3,1 3.3,1.3 3.2,0.9 3.5,0.7 3.2,0.7 	"/>
	<polygon class="st1" points="3,2.1 2.9,2.4 2.6,2.4 2.9,2.6 2.8,3 3,2.8 3.3,3 3.2,2.6 3.5,2.4 3.2,2.4 	"/>
	<polygon class="st1" points="3,3.8 2.9,4.2 2.6,4.2 2.9,4.4 2.8,4.7 3,4.5 3.3,4.7 3.2,4.4 3.5,4.2 3.2,4.2 	"/>
	<polygon class="st1" points="3,5.5 2.9,5.9 2.6,5.9 2.9,6.1 2.8,6.4 3,6.2 3.3,6.4 3.2,6.1 3.5,5.9 3.2,5.9 	"/>
	<polygon class="st1" points="3.2,7.6 3,7.3 2.9,7.6 2.6,7.6 2.9,7.8 2.8,8.2 3,7.9 3.3,8.2 3.2,7.8 3.5,7.6 	"/>
	<polygon class="st1" points="4.1,1.2 3.9,1.6 3.6,1.6 3.9,1.8 3.8,2.1 4.1,1.9 4.3,2.1 4.2,1.8 4.5,1.6 4.2,1.6 	"/>
	<polygon class="st1" points="4.1,3 3.9,3.3 3.6,3.3 3.9,3.5 3.8,3.8 4.1,3.6 4.3,3.8 4.2,3.5 4.5,3.3 4.2,3.3 	"/>
	<polygon class="st1" points="4.1,4.7 3.9,5 3.6,5 3.9,5.2 3.8,5.6 4.1,5.4 4.3,5.6 4.2,5.2 4.5,5 4.2,5 	"/>
	<polygon class="st1" points="4.2,6.7 4.1,6.4 3.9,6.7 3.6,6.7 3.9,7 3.8,7.3 4.1,7.1 4.3,7.3 4.2,7 4.5,6.7 	"/>
	<polygon class="st1" points="5.1,0.4 5,0.7 4.6,0.7 4.9,0.9 4.8,1.3 5.1,1 5.4,1.3 5.2,0.9 5.5,0.7 5.2,0.7 	"/>
	<polygon class="st1" points="5.1,2.1 5,2.4 4.6,2.4 4.9,2.6 4.8,3 5.1,2.8 5.4,3 5.2,2.6 5.5,2.4 5.2,2.4 	"/>
	<polygon class="st1" points="5.1,3.8 5,4.2 4.6,4.2 4.9,4.4 4.8,4.7 5.1,4.5 5.4,4.7 5.2,4.4 5.5,4.2 5.2,4.2 	"/>
	<polygon class="st1" points="5.1,5.5 5,5.9 4.6,5.9 4.9,6.1 4.8,6.4 5.1,6.2 5.4,6.4 5.2,6.1 5.5,5.9 5.2,5.9 	"/>
	<polygon class="st1" points="5.2,7.6 5.1,7.3 5,7.6 4.6,7.6 4.9,7.8 4.8,8.2 5.1,7.9 5.4,8.2 5.2,7.8 5.5,7.6 	"/>
	<polygon class="st1" points="6.1,1.2 6,1.6 5.6,1.6 5.9,1.8 5.8,2.1 6.1,1.9 6.4,2.1 6.3,1.8 6.5,1.6 6.2,1.6 	"/>
	<polygon class="st1" points="6.1,3 6,3.3 5.6,3.3 5.9,3.5 5.8,3.8 6.1,3.6 6.4,3.8 6.3,3.5 6.5,3.3 6.2,3.3 	"/>
	<polygon class="st1" points="6.1,4.7 6,5 5.6,5 5.9,5.2 5.8,5.6 6.1,5.4 6.4,5.6 6.3,5.2 6.5,5 6.2,5 	"/>
	<polygon class="st1" points="6.2,6.7 6.1,6.4 6,6.7 5.6,6.7 5.9,7 5.8,7.3 6.1,7.1 6.4,7.3 6.3,7 6.5,6.7 	"/>
	<polygon class="st1" points="7.1,0.4 7,0.7 6.6,0.7 6.9,0.9 6.8,1.3 7.1,1 7.4,1.3 7.3,0.9 7.6,0.7 7.2,0.7 	"/>
	<polygon class="st1" points="7.1,2.1 7,2.4 6.6,2.4 6.9,2.6 6.8,3 7.1,2.8 7.4,3 7.3,2.6 7.6,2.4 7.2,2.4 	"/>
	<polygon class="st1" points="7.1,3.8 7,4.2 6.6,4.2 6.9,4.4 6.8,4.7 7.1,4.5 7.4,4.7 7.3,4.4 7.6,4.2 7.2,4.2 	"/>
	<polygon class="st1" points="7.1,5.5 7,5.9 6.6,5.9 6.9,6.1 6.8,6.4 7.1,6.2 7.4,6.4 7.3,6.1 7.6,5.9 7.2,5.9 	"/>
	<polygon class="st1" points="7.2,7.6 7.1,7.3 7,7.6 6.6,7.6 6.9,7.8 6.8,8.2 7.1,7.9 7.4,8.2 7.3,7.8 7.6,7.6 	"/>
	<polygon class="st1" points="8.1,1.2 8,1.6 7.6,1.6 7.9,1.8 7.8,2.1 8.1,1.9 8.4,2.1 8.3,1.8 8.6,1.6 8.2,1.6 	"/>
	<polygon class="st1" points="8.1,3 8,3.3 7.6,3.3 7.9,3.5 7.8,3.8 8.1,3.6 8.4,3.8 8.3,3.5 8.6,3.3 8.2,3.3 	"/>
	<polygon class="st1" points="8.1,4.7 8,5 7.6,5 7.9,5.2 7.8,5.6 8.1,5.4 8.4,5.6 8.3,5.2 8.6,5 8.2,5 	"/>
	<polygon class="st1" points="8.2,6.7 8.1,6.4 8,6.7 7.6,6.7 7.9,7 7.8,7.3 8.1,7.1 8.4,7.3 8.3,7 8.6,6.7 	"/>
	<polygon class="st1" points="9.1,0.4 9,0.7 8.7,0.7 8.9,0.9 8.8,1.3 9.1,1 9.4,1.3 9.3,0.9 9.6,0.7 9.2,0.7 	"/>
	<polygon class="st1" points="9.1,2.1 9,2.4 8.7,2.4 8.9,2.6 8.8,3 9.1,2.8 9.4,3 9.3,2.6 9.6,2.4 9.2,2.4 	"/>
	<polygon class="st1" points="9.1,3.8 9,4.2 8.7,4.2 8.9,4.4 8.8,4.7 9.1,4.5 9.4,4.7 9.3,4.4 9.6,4.2 9.2,4.2 	"/>
	<polygon class="st1" points="9.1,5.5 9,5.9 8.7,5.9 8.9,6.1 8.8,6.4 9.1,6.2 9.4,6.4 9.3,6.1 9.6,5.9 9.2,5.9 	"/>
	<polygon class="st1" points="9.2,7.6 9.1,7.3 9,7.6 8.7,7.6 8.9,7.8 8.8,8.2 9.1,7.9 9.4,8.2 9.3,7.8 9.6,7.6 	"/>
</g>
</svg>